<?xml version="1.0" standalone="no"?>
<!DOCTYPE svg PUBLIC "-//W3C//DTD SVG 20010904//EN"
 "http://www.w3.org/TR/2001/REC-SVG-20010904/DTD/svg10.dtd">
<svg version="1.0" xmlns="http://www.w3.org/2000/svg"
 width="1280.000000pt" height="720.000000pt" viewBox="0 0 1280.000000 720.000000"
 preserveAspectRatio="xMidYMid meet">
<metadata>
Created by potrace 1.16, written by Peter Selinger 2001-2019
</metadata>
<g transform="translate(0.000000,720.000000) scale(0.100000,-0.100000)"
fill="#000000" stroke="none">
<path d="M4515 6030 c-120 -122 -151 -147 -220 -181 -238 -120 -402 -336 -450
-594 -74 -391 142 -784 510 -926 82 -32 201 -58 268 -59 l37 0 0 535 0 535
299 0 299 0 57 115 c31 63 54 118 52 122 -3 4 -163 87 -356 183 l-350 174 -3
118 -3 118 -140 -140z"/>
<path d="M8140 6055 l0 -120 -351 -175 c-193 -96 -353 -179 -356 -183 -3 -4
21 -60 53 -123 l58 -114 298 0 298 0 0 -535 0 -535 39 0 c64 0 182 26 267 59
107 42 194 100 285 191 168 168 250 388 236 630 -7 122 -25 196 -73 298 -81
177 -220 317 -399 405 -46 22 -95 64 -207 175 l-148 147 0 -120z"/>
<path d="M7544 4818 c-258 -280 -1994 -2018 -2296 -2300 -218 -202 -258 -243
-258 -267 0 -34 28 -61 63 -61 21 0 60 37 203 193 258 279 1994 2017 2297
2299 217 202 257 243 257 267 0 34 -28 61 -63 61 -21 0 -60 -37 -203 -192z"/>
<path d="M5643 4780 c-105 -22 -240 -103 -305 -182 -92 -113 -132 -225 -130
-368 3 -171 48 -273 188 -419 l93 -96 88 88 89 87 197 -80 c108 -44 202 -80
209 -80 8 0 51 38 97 84 64 64 82 88 74 98 -5 7 -63 80 -128 162 l-118 148
244 244 244 244 -43 42 -42 43 -103 -103 -103 -102 -34 35 c-50 52 -135 106
-210 133 -72 27 -232 38 -307 22z m447 -870 c0 -3 -10 -16 -22 -27 l-23 -21
-120 49 c-66 27 -131 54 -144 60 -24 10 -23 11 54 89 l78 79 89 -111 c48 -61
88 -114 88 -118z"/>
<path d="M7220 3395 l-86 -86 -196 81 c-109 44 -203 80 -210 80 -8 0 -51 -38
-97 -84 l-84 -84 34 -44 c18 -24 76 -96 127 -162 l94 -119 -243 -243 -244
-244 43 -42 42 -43 103 103 103 102 29 -31 c41 -44 148 -111 220 -140 52 -20
77 -23 185 -23 145 0 197 15 313 91 233 154 310 471 174 726 -27 51 -198 247
-216 247 -3 0 -45 -38 -91 -85z m-295 -127 c55 -22 103 -43 107 -47 4 -4 -27
-41 -70 -84 l-77 -77 -41 53 c-22 28 -62 80 -89 115 l-48 62 23 25 c22 23 24
24 59 9 20 -9 81 -34 136 -56z"/>
<path d="M4500 2915 c-164 -32 -308 -111 -431 -235 -196 -197 -278 -477 -220
-754 51 -250 220 -463 454 -578 48 -23 95 -63 210 -176 l147 -147 0 120 0 120
351 175 c193 96 353 179 356 183 3 5 -21 60 -52 123 l-56 114 -300 0 -299 0 0
535 0 535 -47 -1 c-27 0 -77 -7 -113 -14z"/>
<path d="M8140 2395 l0 -535 -299 0 -299 0 -56 -111 c-31 -61 -56 -115 -56
-120 0 -5 160 -89 355 -186 l355 -178 0 -120 0 -120 148 147 c124 123 159 152
222 183 96 47 150 87 226 167 114 119 183 249 215 402 75 365 -87 722 -412
904 -97 55 -263 102 -360 102 l-39 0 0 -535z"/>
</g>
</svg>
