<?xml version="1.0" encoding="UTF-8" standalone="no"?>
<!-- Created with Inkscape (http://www.inkscape.org/) -->

<svg
   version="1.1"
   id="svg1"
   width="1024"
   height="1024"
   viewBox="0 0 1024 1024"
   sodipodi:docname="logo-simple.svg"
   inkscape:version="1.3 (0e150ed6c4, 2023-07-21)"
   xmlns:inkscape="http://www.inkscape.org/namespaces/inkscape"
   xmlns:sodipodi="http://sodipodi.sourceforge.net/DTD/sodipodi-0.dtd"
   xmlns="http://www.w3.org/2000/svg"
   xmlns:svg="http://www.w3.org/2000/svg">
  <defs
     id="defs1" />
  <sodipodi:namedview
     id="namedview1"
     pagecolor="#ffffff"
     bordercolor="#000000"
     borderopacity="0.25"
     inkscape:showpageshadow="2"
     inkscape:pageopacity="0.0"
     inkscape:pagecheckerboard="0"
     inkscape:deskcolor="#d1d1d1"
     inkscape:zoom="1.6035156"
     inkscape:cx="280.94519"
     inkscape:cy="502.33374"
     inkscape:window-width="1920"
     inkscape:window-height="1017"
     inkscape:window-x="-8"
     inkscape:window-y="-8"
     inkscape:window-maximized="1"
     inkscape:current-layer="g1" />
  <g
     inkscape:groupmode="layer"
     inkscape:label="Image"
     id="g1"
     style="display:inline">
    <path
       style="fill:#000000"
       d="m 506.76746,790.09441 c -13.3471,-13.53228 -24.90198,-25.40983 -25.6775,-26.39457 -1.28821,-1.63574 0.8271,-4.03363 24.48366,-27.7544 l 25.89368,-25.96397 25.76635,25.75205 C 571.40514,749.89715 583,761.7231 583,762.01341 c 0,0.29032 -11.69214,12.26323 -25.98254,26.60649 l -25.98254,26.07865 z M 579.5,682.28284 c -23.65,-23.48146 -53.64472,-53.24238 -66.65493,-66.13538 l -23.65493,-23.44182 -11.1594,11.58522 c -6.13767,6.37186 -11.13202,11.95059 -11.09855,12.39718 0.0335,0.44658 8.90336,9.70816 19.71089,20.58129 l 19.65005,19.76933 -11.81066,11.93717 c -6.49587,6.56545 -12.16317,12.50753 -12.59401,13.20464 -0.68504,1.10843 -53.96868,-52.02167 -130.3511,-129.9755 l -12.96264,-13.22931 -6.78736,6.73535 c -3.73305,3.70444 -6.78736,7.12732 -6.78736,7.6064 0,0.47907 29.33643,30.64114 65.19207,67.02682 35.85564,36.38567 67.65452,68.71847 70.66417,71.85066 l 5.47209,5.69489 -12.60758,12.80101 -12.60758,12.801 L 341.05658,623.13667 C 286.02546,567.94136 241,522.26762 241,521.63948 241,520.23875 530.10251,231 531.50258,231 c 0.55,0 66.47267,65.47383 146.49483,145.49741 l 145.49483,145.49741 -28.98991,29.00285 -28.98991,29.00284 -30.7296,-30.7176 -30.72959,-30.7176 16.97338,-17.14964 C 730.36198,491.98337 738,484.06291 738,483.81464 738,482.89147 566.91394,312.48971 565.73083,312.23449 c -0.67696,-0.14603 -46.40342,44.91712 -101.61435,100.14033 -99.44829,99.47038 -100.36854,100.42722 -98.77516,102.7021 0.88461,1.26295 18.13726,18.87811 38.33922,39.1448 l 36.73084,36.84853 19.79431,-19.77575 C 471.09256,560.41784 480,551.26955 480,550.96498 c 0,-0.30458 -5.85879,-6.3838 -13.01953,-13.50938 -7.16074,-7.12558 -15.93024,-16.16676 -19.48778,-20.09151 l -6.46826,-7.13591 44.23778,-44.69962 44.23779,-44.69963 22.52838,22.83554 c 47.14698,47.78977 72.21767,73.37255 87.05734,88.83553 8.44527,8.8 25.74113,26.575 38.43525,39.5 12.69413,12.925 28.78282,29.35 35.75266,36.5 l 12.67244,13 -11.7074,11.75 C 707.7996,639.7125 702.202,645 701.79956,645 c -0.40243,0 -30.30487,-29.70986 -66.44987,-66.02192 -36.145,-36.31205 -66.06098,-65.89955 -66.47997,-65.75 -0.41898,0.14956 -12.95219,12.37575 -27.85158,27.16933 l -27.0898,26.89741 2.28583,2.57547 c 1.25721,1.41652 31.18248,31.45547 66.5006,66.75323 l 64.21476,64.17775 -11.9127,12.09937 c -6.55199,6.65465 -12.04864,12.09405 -12.21477,12.08756 C 622.63593,724.98171 603.15,705.7643 579.5,682.28284 Z m 21.01832,-219.25436 -55.98167,-56.03388 11.96994,-12.00121 c 6.58347,-6.60067 12.20023,-11.87996 12.48168,-11.73176 0.28145,0.1482 25.44739,25.32368 55.9243,55.94551 l 55.41257,55.67604 -11.91257,12.08959 L 656.5,519.06236 Z"
       id="path1" />
  </g>
</svg>
