<?xml version="1.0" encoding="UTF-8" standalone="no"?>
<!-- Created with Inkscape (http://www.inkscape.org/) -->

<svg
   width="210mm"
   height="297mm"
   viewBox="0 0 210 297"
   version="1.1"
   id="svg1"
   xml:space="preserve"
   inkscape:version="1.3 (0e150ed6c4, 2023-07-21)"
   sodipodi:docname="logo-apple.svg"
   inkscape:export-filename="logo-apple.svg"
   inkscape:export-xdpi="96"
   inkscape:export-ydpi="96"
   xmlns:inkscape="http://www.inkscape.org/namespaces/inkscape"
   xmlns:sodipodi="http://sodipodi.sourceforge.net/DTD/sodipodi-0.dtd"
   xmlns="http://www.w3.org/2000/svg"
   xmlns:svg="http://www.w3.org/2000/svg"><sodipodi:namedview
     id="namedview1"
     pagecolor="#ffffff"
     bordercolor="#000000"
     borderopacity="0.25"
     inkscape:showpageshadow="2"
     inkscape:pageopacity="0.0"
     inkscape:pagecheckerboard="0"
     inkscape:deskcolor="#d1d1d1"
     inkscape:document-units="mm"
     inkscape:zoom="1.0343421"
     inkscape:cx="452.46153"
     inkscape:cy="543.82396"
     inkscape:window-width="1920"
     inkscape:window-height="1017"
     inkscape:window-x="-8"
     inkscape:window-y="-8"
     inkscape:window-maximized="1"
     inkscape:current-layer="layer1" /><defs
     id="defs1"><inkscape:path-effect
       effect="bspline"
       id="path-effect2"
       is_visible="true"
       lpeversion="1.3"
       weight="33.333333"
       steps="2"
       helper_size="0"
       apply_no_weight="true"
       apply_with_weight="true"
       only_selected="false"
       uniform="false" /><inkscape:path-effect
       effect="bspline"
       id="path-effect1"
       is_visible="true"
       lpeversion="1.3"
       weight="33.333333"
       steps="2"
       helper_size="0"
       apply_no_weight="true"
       apply_with_weight="true"
       only_selected="false"
       uniform="false" /></defs><g
     inkscape:label="Capa 1"
     inkscape:groupmode="layer"
     id="layer1"><path
       style="fill:#000000;stroke-width:0.264583"
       d="m 33.94458,114.94732 c 0.93453,-1.26614 2.803592,-3.79842 4.657599,-5.96896 1.854007,-2.17054 3.692891,-3.97928 6.029246,-5.8785 2.336356,-1.89923 5.170037,-3.888837 7.732483,-5.381083 2.562446,-1.492246 4.853509,-2.48705 6.843172,-3.240709 1.989662,-0.753659 3.677816,-1.266134 5.667485,-1.703256 1.989669,-0.437123 4.280734,-0.798869 6.767818,-0.919452 2.487085,-0.120583 5.170039,-10e-7 8.50123,0.602933 3.331191,0.602934 7.310406,1.688174 10.701877,2.713153 3.391472,1.024979 6.195008,1.989637 8.561499,2.743296 2.366491,0.753659 4.295811,1.296281 5.984011,1.567597 1.6882,0.271315 3.13519,0.271315 4.32597,0.256241 1.19078,-0.01507 2.1253,-0.04522 3.10506,-0.150734 0.97976,-0.105514 2.0047,-0.286386 4.05467,-0.889319 2.04997,-0.602933 5.12482,-1.627883 7.56668,-2.471983 2.44186,-0.844099 4.25059,-1.507301 6.45128,-2.15545 2.2007,-0.648149 4.79322,-1.281206 7.26523,-1.658034 2.47201,-0.376828 4.82336,-0.497409 7.37074,-0.467261 2.54738,0.03015 5.29062,0.211021 7.67219,0.602928 2.38157,0.391907 4.40132,0.994817 6.48142,1.83892 2.08011,0.844102 4.22045,1.929343 6.28548,3.044761 2.06503,1.115419 4.05464,2.260952 6.34577,4.054672 2.29114,1.79372 4.88365,4.23551 6.69243,6.02922 1.80878,1.79371 2.83373,2.93924 2.54733,3.94915 -0.2864,1.0099 -1.88412,1.88412 -4.0396,3.63263 -2.15548,1.7485 -4.86857,4.37116 -7.06926,7.02405 -2.20069,2.65289 -3.88884,5.33585 -5.15498,7.86815 -1.26615,2.5323 -2.11023,4.9138 -2.71315,7.44611 -0.60293,2.5323 -0.96468,5.21525 -1.14556,7.37072 -0.18088,2.15547 -0.18088,3.78333 -0.12059,5.35095 0.0603,1.56761 0.18088,3.07489 0.63309,5.20022 0.4522,2.12533 1.23598,4.86857 2.00471,7.05419 0.76874,2.18561 1.52238,3.81347 2.65288,5.72777 1.13049,1.91431 2.63777,4.11494 4.25061,6.08953 1.61283,1.97459 3.33113,3.72303 5.23036,5.33587 1.89923,1.61283 3.97927,3.08996 6.04431,4.28074 2.06503,1.19079 4.11492,2.09515 4.71784,3.40653 0.60291,1.31137 -0.24116,3.02967 -0.9496,4.52192 -0.70844,1.49225 -1.2812,2.75836 -2.32126,4.77818 -1.04006,2.01982 -2.54734,4.79321 -4.16017,7.55161 -1.61284,2.7584 -3.33114,5.50165 -5.47154,8.63689 -2.14041,3.13523 -4.70278,6.66226 -7.46119,9.88793 -2.7584,3.22567 -5.71266,6.14979 -8.90819,8.53135 -3.19553,2.38157 -6.63212,4.22045 -9.90301,5.21528 -3.27089,0.99482 -6.37588,1.14555 -10.1442,0.37681 -3.76831,-0.76875 -8.19971,-2.4569 -11.99816,-3.72305 -3.79845,-1.26615 -6.96373,-2.11023 -9.7372,-2.54734 -2.77347,-0.43711 -5.15497,-0.46725 -7.17478,-0.40695 -2.01981,0.0603 -3.67782,0.21103 -5.29066,0.43713 -1.61283,0.2261 -3.1804,0.52755 -5.004262,1.11541 -1.823862,0.58786 -3.903907,1.46208 -6.255333,2.4117 -2.351426,0.94961 -4.97409,1.97456 -7.400879,2.66793 -2.426788,0.69336 -4.65756,1.05511 -6.63215,1.14554 -1.974591,0.0904 -3.692887,-0.0904 -5.260502,-0.43712 -1.567615,-0.34668 -2.984458,-0.85916 -5.516772,-2.33634 -2.532314,-1.47719 -6.179927,-3.91898 -9.028758,-6.30055 -2.848832,-2.38157 -4.898731,-4.70278 -7.355671,-7.88324 -2.456941,-3.18046 -5.320773,-7.21997 -7.898292,-11.35003 -2.577519,-4.13007 -4.868582,-8.35045 -6.948685,-12.78198 -2.080103,-4.43153 -3.949129,-9.07395 -5.320788,-13.00806 -1.371658,-3.9341 -2.245881,-7.15968 -2.999541,-10.34013 -0.75366,-3.18045 -1.386717,-6.31559 -1.884132,-10.17434 -0.497415,-3.85876 -0.859162,-8.44088 -0.949598,-12.4805 -0.09044,-4.03963 0.09044,-7.53651 0.557708,-11.06365 0.467272,-3.52713 1.220912,-7.08431 1.853986,-9.69197 0.633075,-2.60766 1.145548,-4.26566 2.080094,-6.40607 0.934546,-2.1404 2.291099,-4.76307 2.969386,-6.07442 0.678288,-1.31136 0.678288,-1.31139 1.612819,-2.57753 z"
       id="path1"
       inkscape:path-effect="#path-effect1"
       inkscape:original-d="m 33.010049,116.21346 c 1.869061,-2.53228 3.738123,-5.06456 5.607184,-7.59684 1.838955,-1.8088 3.677833,-3.61754 5.516751,-5.4263 2.833796,-1.98969 5.667478,-3.979297 8.501216,-5.968945 2.291154,-0.994844 4.582218,-1.989646 6.873324,-2.984471 1.688219,-0.512493 3.376372,-1.024969 5.064556,-1.537454 2.291154,-0.36176 4.582219,-0.723506 6.873325,-1.08526 2.683063,0.120586 5.366017,0.241168 8.049027,0.361754 3.979373,1.085281 7.958587,2.170523 11.937881,3.255785 2.803649,0.964695 5.607185,1.929355 8.410778,2.894031 1.929389,0.542642 3.858709,1.085263 5.788059,1.627894 1.44705,0 2.89404,0 4.34105,0 0.93455,-0.03015 1.86907,-0.06029 2.80359,-0.09044 1.025,-0.180879 2.04994,-0.361754 3.07491,-0.542631 3.07497,-1.02499 6.14982,-2.049939 9.22473,-3.074908 1.80881,-0.663228 3.61754,-1.32643 5.42631,-1.989648 2.59262,-0.633082 5.18514,-1.266137 7.77771,-1.899208 2.35145,-0.120587 4.7028,-0.241168 7.0542,-0.361752 2.74336,0.18088 5.4866,0.361752 8.2299,0.542629 2.01984,0.602937 4.03959,1.205846 6.05938,1.808771 2.14042,1.085283 4.28076,2.170522 6.42114,3.255785 1.98968,1.145577 3.97929,2.291109 5.96893,3.436658 2.59263,2.44189 5.18514,4.88368 7.77771,7.32552 1.025,1.14558 2.04994,2.29111 3.07491,3.43667 -1.59777,0.87425 -3.19549,1.74847 -4.79324,2.62271 -2.71321,2.62277 -5.4263,5.24543 -8.13946,7.86815 -1.68822,2.68306 -3.37637,5.36602 -5.06455,8.04903 -0.84411,2.38159 -1.68819,4.76309 -2.53228,7.14464 -0.36176,2.68306 -0.72351,5.36601 -1.08527,8.04902 0,1.62793 0,3.25579 0,4.88368 0.12059,1.50734 0.24117,3.01462 0.36176,4.52192 0.78382,2.74336 1.5676,5.4866 2.3514,8.22991 0.75367,1.62792 1.50731,3.25578 2.26096,4.88367 1.50734,2.20072 3.01462,4.40135 4.52193,6.60201 1.71836,1.74852 3.43666,3.49696 5.15499,5.24544 2.08013,1.47719 4.16017,2.95432 6.24026,4.43148 2.04998,0.90441 4.09987,1.80877 6.14981,2.71316 -0.84411,1.71836 -1.68818,3.43666 -2.53227,5.15499 -0.57279,1.26617 -1.14556,2.53228 -1.71833,3.79842 -1.50734,2.7735 -3.01462,5.54689 -4.52193,8.32034 -1.71836,2.74335 -3.43666,5.4866 -5.15499,8.2299 -2.56248,3.52717 -5.12485,7.0542 -7.68728,10.5813 -2.95438,2.92424 -5.90864,5.84836 -8.86297,8.77254 -3.43673,1.83895 -6.87332,3.67783 -10.30999,5.51675 -3.10511,0.15073 -6.2101,0.30146 -9.31516,0.45219 -4.43157,-1.68822 -8.86297,-3.37637 -13.29446,-5.06456 -3.16541,-0.84411 -6.33069,-1.68818 -9.49604,-2.53228 -2.38159,-0.0301 -4.76309,-0.0603 -7.14464,-0.0904 -1.65807,0.15073 -3.31608,0.30146 -4.97412,0.45219 -1.56763,0.30147 -3.1352,0.60292 -4.702798,0.90438 -2.080125,0.87426 -4.160171,1.74848 -6.240256,2.62272 -2.622767,1.02499 -5.245431,2.04994 -7.868148,3.07491 -2.23086,0.36176 -4.461631,0.72351 -6.692447,1.08526 -1.718366,-0.18088 -3.436662,-0.36175 -5.154994,-0.54263 -1.416899,-0.51249 -2.83374,-1.02497 -4.25061,-1.53745 -3.647758,-2.44189 -7.295372,-4.88368 -10.943056,-7.32552 -2.049981,-2.3213 -4.09988,-4.64251 -6.149818,-6.96377 -2.863943,-4.03966 -5.727772,-8.07917 -8.591656,-12.11875 -2.291154,-4.22055 -4.582218,-8.44093 -6.873325,-12.66139 -1.869101,-4.6426 -3.738126,-9.28502 -5.607187,-13.92753 -0.874255,-3.2257 -1.748478,-6.45128 -2.622717,-9.67692 -0.633082,-3.13526 -1.266138,-6.2704 -1.899207,-9.4056 -0.361761,-4.58231 -0.723508,-9.16443 -1.085262,-13.74665 0.18088,-3.49703 0.361754,-6.99391 0.542631,-10.49087 0.753669,-3.55731 1.507309,-7.11449 2.260961,-10.67174 0.512495,-1.65807 1.024969,-3.31607 1.537454,-4.97411 1.356606,-2.62277 2.713157,-5.24544 4.069734,-7.86815 z" /><path
       style="fill:#000000;stroke-width:0.264583"
       d="m 103.52192,93.015985 c -0.45219,-0.859166 -0.66321,-2.667935 -0.67828,-4.491796 -0.0151,-1.823861 0.1658,-3.66274 0.52756,-5.607188 0.36176,-1.944448 0.90438,-3.994347 1.92936,-6.602023 1.02499,-2.607675 2.53226,-5.772959 4.25061,-8.531354 1.71835,-2.758395 3.64767,-5.10975 5.74285,-7.204926 2.09518,-2.095176 4.3561,-3.934058 6.61709,-5.501672 2.26098,-1.567614 4.5219,-2.863873 7.03913,-4.02451 2.51723,-1.160637 5.29062,-2.185586 7.59682,-2.788511 2.3062,-0.602925 4.14508,-0.783799 5.09469,0.195973 0.9496,0.979772 1.0099,3.120106 0.84409,5.68256 -0.16581,2.562453 -0.5577,5.546864 -1.26615,8.305263 -0.70844,2.758399 -1.7334,5.290628 -2.77345,7.506389 -1.04005,2.215761 -2.09515,4.114929 -3.22564,5.833277 -1.13049,1.718349 -2.33631,3.25577 -3.61754,4.717876 -1.28123,1.462105 -2.63778,2.8488 -4.28076,4.235537 -1.64299,1.386737 -3.5723,2.773428 -5.72778,4.009432 -2.15547,1.236003 -4.53697,2.321244 -6.58693,3.059829 -2.04995,0.738586 -3.76825,1.130479 -5.32079,1.386723 -1.55254,0.256244 -2.93924,0.376827 -3.97929,0.482339 -1.04005,0.105512 -1.73339,0.195948 -2.18559,-0.663218 z"
       id="path2"
       inkscape:path-effect="#path-effect2"
       inkscape:original-d="m 103.28075,93.96559 c -0.21102,-1.808771 -0.42204,-3.61754 -0.63306,-5.426311 0.18087,-1.838952 0.36175,-3.67783 0.54263,-5.516747 0.54264,-2.049979 1.08526,-4.099878 1.62789,-6.149817 1.50734,-3.165411 3.01462,-6.330693 4.52192,-9.496041 1.92939,-2.351447 3.85871,-4.702802 5.78807,-7.054202 2.261,-1.838952 4.52192,-3.677832 6.78288,-5.516747 2.26101,-1.296313 4.52193,-2.59257 6.78289,-3.888857 2.7735,-1.02499 5.54689,-2.049938 8.32034,-3.074908 1.83895,-0.180879 3.67783,-0.361754 5.51675,-0.542631 0.0603,2.140421 0.12058,4.280755 0.18088,6.421133 -0.39191,2.984529 -0.78381,5.968939 -1.1757,8.95341 -1.02499,2.53233 -2.04995,5.064556 -3.07492,7.596833 -1.05513,1.899248 -2.11022,3.798417 -3.16534,5.697625 -1.20587,1.537486 -2.41169,3.074908 -3.61754,4.612365 -1.35661,1.38675 -2.71316,2.773444 -4.06973,4.160168 -1.9294,1.386752 -3.85871,2.773447 -5.78807,4.16017 -2.38159,1.085284 -4.76309,2.170526 -7.14464,3.255786 -1.71836,0.391908 -3.43666,0.783801 -5.15499,1.175702 -1.38675,0.120587 -2.77345,0.241168 -4.16017,0.361754 -0.69338,0.09044 -1.38672,0.180877 -2.08009,0.271315 z" /></g></svg>
