<svg version="1.2" xmlns="http://www.w3.org/2000/svg" viewBox="0 0 500 500" width="500" height="500">
	<title>pelotiña-svg</title>
	<style>
		.s0 { fill: #718899 } 
		.s1 { fill: #e2e9ed } 
		.s2 { fill: #21415e } 
		.s3 { fill: #f2f6f8 } 
		.s4 { fill: #0d192a } 
		.s5 { fill: #c3d2d9 } 
		.s6 { fill: #86a1af } 
		.s7 { fill: #040819 } 
		.s8 { fill: #111e31 } 
		.s9 { fill: #132539 } 
	</style>
	<path class="s0" d="m310 85q1.6 0.6 3.3 1.3c10.3 4.1 19.4 9.8 28.7 15.7q1.5 1 3.1 2c4.5 2.8 4.5 2.8 5.9 4q0 1 0 2 1.1 0.4 2.1 0.7c3.4 1.5 5.9 3.5 8.7 5.8q1.5 1.2 3 2.4 1.1 1 2.2 2.1 0 1 0 2 0.8 0.3 1.7 0.7c22.1 12.5 36.5 48.8 43.1 71.7 11.1 40.9 5.4 86.5-14.8 123.6q-0.8 1.6-1.7 3.2c-4.5 8-9.8 15.4-15.3 22.8q-0.8 1.2-1.7 2.4-0.6 0.8-1.3 1.6-1 0-2 0-0.4 0.9-0.8 1.8c-6.5 12.2-21.1 21.3-32.2 28.9q-2.5 1.7-5 3.4c-16.1 11-35.9 17.2-55 20.9q-1.6 0.3-3.2 0.6c-42.2 7-84.5-3.7-119.1-28.4q-2.9-2.1-5.7-4.2-1.5-1.1-3-2.2c-1-0.9-1-0.9-2-1.8q0-1 0-2-0.9-0.4-1.8-0.8c-2.4-1.3-4-2.8-6-4.7q-0.9-0.9-1.8-1.8c-1.4-1.7-1.4-1.7-1.4-3.7q-1 0-2 0 0-1 0-2-1 0-2 0c-1.6-1.8-3.1-3.7-4.6-5.6q-0.6-0.9-1.3-1.8c-17.1-22.8-27.6-46.7-33.1-74.6q-0.4-1.8-0.8-3.7c-3.5-21.2-1.8-43.4 2.8-64.3q0.4-1.9 0.8-3.8c4.1-15.7 10.9-31.3 19.2-45.2q0.8-1.4 1.7-2.9c3.5-5.6 7.4-10.9 11.6-16 1.8-2.2 1.8-2.2 3.7-5.1q1 0 2 0c0.4-0.9 0.4-0.9 0.8-1.8 1.3-2.4 2.8-4 4.7-6 0.9-0.9 0.9-0.9 1.8-1.8 1.7-1.4 1.7-1.4 3.7-1.4q0-1 0-2c11.7-11.3 26.3-20.2 41-27 1.5-0.8 1.5-0.8 3.1-1.5 36.9-18.3 80.9-18.6 118.9-3.5z"/>
	<path class="s1" d="m310 85q1.6 0.6 3.3 1.3c10.3 4.1 19.4 9.8 28.7 15.7q1.5 1 3.1 2c4.5 2.8 4.5 2.8 5.9 4q0 1 0 2 1.1 0.4 2.1 0.7c3.4 1.5 5.9 3.5 8.7 5.8q1.5 1.2 3 2.4 1.1 1 2.2 2.1 0 1 0 2 0.8 0.3 1.7 0.7c22.1 12.5 36.5 48.8 43.1 71.7 11.1 40.9 5.4 86.5-14.8 123.6q-0.8 1.6-1.7 3.2c-4.5 8-9.8 15.4-15.3 22.8q-0.8 1.2-1.7 2.4-0.6 0.8-1.3 1.6-1 0-2 0-0.4 0.9-0.8 1.8c-6.5 12.2-21.1 21.3-32.2 28.9q-2.5 1.7-5 3.4c-13.7 9.3-33.2 18.5-50 17.9 3-2 5.4-2.9 8.8-3.9 4.3-1.4 8.2-3 12.2-5.1q2-0.6 4-1.2c4.1-1.5 6.2-3.9 8.8-7.4q0.6-0.7 1.2-1.4 1 0 2 0 0-1 0-2 2.9-2.1 6-4 1.3-0.8 2.6-1.6c2.4-1.4 2.4-1.4 4.8-2.2 2.6-1.2 3.6-2.1 5.4-4.1 2.8-3 5.6-4.5 9.4-6.1 2-1.1 3.2-2.4 4.8-4q1.6-1.1 3.3-2.2c4.2-3 7.4-6.8 10.7-10.8-3.2 2.5-6.3 5.2-9.3 7.9-3.9 3.5-7.9 7-12.7 9.1q-1-0.5-2-1c3.8-3.3 7.7-6.5 11.7-9.6 3.3-2.5 5.8-5 8.3-8.4q2.5-2.5 5-5c5.3-6.3 4.2-13.6 4.2-21.5q0-1.8 0-3.7c0-7.8-0.6-15.1-2.2-22.8q1 0 2 0c3.2 12.6 3.7 25 4 38q1-2.1 1.9-4.2 0.6-1.2 1.1-2.4c1.2-2.9 1.9-5.8 2.5-8.9 0.6-3.1 1.3-6.2 2.1-9.2 1-4.6 2-9.2 2.8-13.9 0.6-2.4 1.4-4.2 2.6-6.4q-1 0-2 0 0.5-1.7 1.1-3.4c1.3-3.4 1.3-3.4-0.1-5.6q1-1 2-2 0-1.5 0-3c0.5-2.4 1.2-4.7 2.1-7.1 1.1-2.9 1.1-2.9 0.9-5.9q0-1.3 0.1-2.6c0.1-2.4 0.1-2.4-1.1-4.4 0.4-2.1 0.4-2.1 1-4q-1.5 0-3 0-0.1 1.8-0.2 3.8c-1 8.1-3.8 16-7.8 23.2-1.2-3.5-0.8-5.4 0.4-8.8q0.5-1.4 1-2.8 0.5-1.4 1-2.9 1-2.8 1.9-5.7 0.5-1.2 0.9-2.5c0.7-2.1 1.3-4.2 1.8-6.3q-1 0-2 0-0.2 1.1-0.5 2.3c-7.3 33.8-7.3 33.8-19.5 41.7-8.7 4.7-8.7 4.7-14 4 2.3-2.7 4.8-4 8-5.4 6.8-2.8 6.8-2.8 11.7-8.1q0.6-1.7 1.3-3.5 0.7-1.6 1.5-3.2 0.8-1.9 1.5-3.8 0.4-1.1 0.9-2.2c1.1-2.9 2.1-5.9 3.1-8.8q0.7-1.8 1.4-3.6c3.5-10.5 4.2-21 4.4-31.9q0.1-2.5 0.2-4.9c0.3-8.6 0.3-15-5.3-21.9q-2.3-2.4-4.7-4.7-2.3-2.4-4.6-4.8c-7.1-7.5-7.1-7.5-16.4-10.2-5 0.3-5 0.3-9 3-2.8 0.6-5.6 1-8.5 1.4-2.7 0.4-2.7 0.4-4.5 2.6q-2.4 0.8-4.8 1.4c-4.8 1.4-8.4 3.3-12.4 6.2-3.3 1.6-6.3 2.2-9.8 2.9-2.2 0.4-2.2 0.4-4 2.5-1.7 5.1-2.6 10.2-3.4 15.4-0.6 2.5-1.5 4.3-2.6 6.6-0.5 2.5-0.9 5-1.3 7.6-0.8 2.7-2 4.2-3.7 6.4q0.1 1.6 0.2 3.3c-0.2 4.6-1.6 5.7-4.7 8.9-2 2.5-2.9 5-3.8 8-0.7 1.8-0.7 1.8-2.5 3.9q-0.6 0.9-1.2 1.9c0.7 3.2 0.7 3.2 2 6q-1 1-2 2c-2.1-0.4-2.1-0.4-4-1q-0.5-2.5-1-5-1 0.5-2.1 1c-3.1 1.1-5.6 1.3-8.9 1.4q-1.7 0-3.4 0.1-1.8 0-3.6 0.1-3.5 0.1-7 0.2c-1.5 0-1.5 0-3.1 0-2.9 0.1-2.9 0.1-5.6 0.8-2.3 0.4-2.3 0.4-5.3-0.6-4.1-0.5-8.1-0.7-12.2-1q-1.6-0.2-3.4-0.3c-5.8-0.4-9.6-0.3-14.2 3.6-1.9 1.8-1.9 1.8-3.2 3.7q0 1.5 0 3-2.4 2.1-5 4-2.6 2.7-5.1 5.4-1.3 1.4-2.6 2.8c-2.3 2.7-2.3 2.7-3.8 5.3-2.4 4-5.8 6.8-9.1 10-2.3 2.4-3.7 4.7-5.4 7.5q-1.5 1-3 2-0.5 1.5-1 3-1 0-2 0c-3.1-5.4-3.1-5.4-2.8-8 1-2.5 2.4-3.8 4.4-5.7 2.9-2.8 5.5-5.6 7.9-8.8 3-3.9 6.2-7.4 9.8-10.8 1.9-1.8 1.9-1.8 3.7-4.7q1 0 2 0 0.4-0.9 0.8-1.8c1.2-2.3 2.6-4 4.3-5.9q0.8-1 1.7-1.9 1.1-1.2 2.2-2.4c0.7-1 0.7-1 1.5-2 2.9-3.5 5.1-5.7 9.7-6.7 3.8-0.2 7.6-0.2 11.5 0q2.1 0 4.2 0 5.6 0.1 11.1 0.2 6.8 0.2 13.6 0.2 5.2 0.1 10.5 0.2 1.9 0 3.8 0.1 1.7 0 3.4 0.1c2.8 0 2.8 0 5.7-1.1 1.1-2.4 1.1-2.4 1.9-5.3q0.5-1.7 1-3.4 0.5-1.7 1-3.5c2.4-8.2 4.9-16.2 8.1-24.1 1.4-3.9 2.4-7.9 3.3-11.9 0.7-2.6 1.3-5.2 2.1-7.8q0.3-1 0.6-2.1c3.1-5.7 10.2-8.2 15.9-10.8q1.4-0.7 2.8-1.4c6.5-3 12.9-5.5 19.7-7.6 2.6-0.8 5.1-1.6 7.6-2.5q1-0.4 2-0.8 2.8-1 5.6-2c3.9-0.9 6.5-0.8 10.4 0.2 2.3 1.5 2.3 1.5 4.3 3.5 3.2 3.1 6.5 5.9 10.1 8.7 4.3 3.5 8 7.2 11.7 11.4q0.7 0.7 1.4 1.5c5.8 6.9 5.8 14.4 5.7 23q0 1.4 0 2.8c-0.1 7.4-0.5 14.7-1.2 22.1 3-13.3 4.4-26.7 3.9-40.4 0.1-3 0.8-4.4 2.6-6.8 2-2.7 2-2.7 2.5-5.8-2 2.3-4 4.6-6 7q-0.5-1.5-1-3c1.2-2 2.5-3.8 4-5.7 1.5-3.4 0.8-5.7 0-9.3-1.4-3.6-1.4-3.6-3.2-7.1q-0.9-1.8-1.8-3.6c-2-3.3-4.2-5.6-7-8.3q-1.9-2.5-3.7-5.1-0.9-1.3-1.8-2.6c-1.5-2.3-1.5-2.3-2.5-5.3q-1-1-2-2-1-1.2-1.9-2.4c-1.9-2.5-1.9-2.5-3.8-4.2-1.3-1.4-1.3-1.4-1.3-4.4q-1.1 0.2-2.2 0.4c-2.8-0.4-2.8-0.4-4.2-1.9-3.6-4.9-3.6-4.9-3.6-7.5-1.2-0.1-1.2-0.1-2.3-0.2q-1.5-0.1-3.1-0.2-1.5-0.2-3-0.3c-2.6-0.3-2.6-0.3-4.6-1.3q0-1 0-2c4 0 7.9 0 12 0q0-1 0-2c-4.9-0.3-9.9-0.7-15-1 1.3 7 3.5 13.4 6 20 1.4 3.8 2.4 6.9 2 11-2.8-2.8-3.7-6.3-5.1-10.1-1.4-4.8-1.4-4.8-3.9-8.9 1 4.9 1 4.9 2 10q-1 0-2 0 0.5 1.5 1 3 1 0.5 2 1c2 6.1 2.6 10.1 0 16-2.7 2.2-4.9 3-8.3 3.9-3.9 1.2-6.5 2.8-9.8 5.1-1.9 1-1.9 1-5.9 1q0 1 0 2-1.5 0-3 0 0 1 0 2c-3 0.5-3 0.5-6 1q0 1.5 0 3c-3 0.5-3 0.5-6 1q-0.5 1.5-1 3c-3.4 3-3.4 3-6 3q-0.5 1.5-1 3c-3.8 0.4-5.6 0.2-8.9-1.8q-1.5-1.3-3-2.6-1.8-1.4-3.5-2.7c-0.9-0.8-0.9-0.8-1.8-1.5-2.3-1.8-4.7-3.5-7.2-5.1q-1.8-1.2-3.7-2.5c-3.3-2.2-6.4-4.1-10.1-5.5-4.7-2-8.8-4.1-11.8-8.3-2.6-8.6-1.3-18.1-0.7-26.9q0.2-3.8 0.3-7.5c0.2-4.5 0.4-9 0.7-13.6q0.1-1.3 0.2-2.7c0.6-2.7 1.3-3.6 3.5-5.3 7.8-4 16.3-5.9 24.8-7.8q1.5-0.3 3-0.7c5.5-1.1 10.6-1.7 16.2-1.5-2.4-3.1-3.7-3.9-7.6-4.7-4.7-0.4-9.3-0.2-14 0.1q-1.2 0-2.5 0.1c-3.4 0.2-6.7 0.5-10 1-3.4 0.6-6.6 0.5-10 0.4-6.7-0.1-13.2 0.4-19.8 1q-1.4 0.2-2.7 0.3c-4 0.1-4 0.1-7.4 1.8 1.7 0.4 1.7 0.4 3.4 0.7 8.1 1.9 16 3.8 23.6 7.3-3.7 1.2-4.7 0.6-8.3-0.7-6.3-2-12.7-3.4-19.2-4.5q-1.4-0.3-2.9-0.6c-4.3-0.7-8.3-1.3-12.6-1.2 1.3 0.2 1.3 0.2 2.6 0.4q4.8 0.8 9.5 1.6 2.1 0.4 4.1 0.7 3 0.5 6 1 1.7 0.3 3.6 0.6c2.9 0.6 5.5 1.5 8.2 2.7q0 1 0 2c2 1 2 1 4 2q-0.3 1.2-0.7 2.5c-1.9 8.2-2.5 15.4-2.3 23.8 0 3.9-0.3 7.6-0.8 11.5-0.2 2.3-0.2 4.4-0.1 6.6-0.1 3.6-0.1 3.6-1.5 5.6-1.6 1-1.6 1-3.6 1-1 2-1 2-2 4q-2 0-4 0-0.3 0.9-0.6 1.9c-2.1 3.2-4.8 3.2-8.4 4.1q-2.5 1.5-5 3-1 0-2 0 0 1 0 2-2.5 1-5 2 0 1 0 2-2 0-4 0 0 1 0 2c-3.2 4.2-7.8 6.6-12.9 7.5q-4 0.3-8.1 0.5 0.9 0.4 1.8 0.8c2.3 1.2 4.2 2.4 6.2 4.2 0.4 3.4 0.4 3.4 0.1 5.4-0.2 3.6 0.4 7.1 0.9 10.6q0.1 1 0.3 2.1 0.3 2.4 0.7 4.9 1 0 2 0 0.3 1.9 0.6 3.9c1.3 9.1 2.7 18.2 4.8 27.2 0.6 3 0.7 5.8 0.6 8.9q-1.5 0-3 0-0.4 1.2-0.8 2.4c-1.2 2.6-1.2 2.6-4.2 4.6q-0.4 0.9-0.9 1.8c-1.5 3-3.7 4.9-6.1 7.2q-1.3 1.5-2.6 3.1c-2.4 2.9-2.4 2.9-4.5 4.3-2.3 1.9-3.4 4.2-4.8 6.8-1.6 2.7-3.8 4.7-6.1 6.8q-0.5 1-1 2-1 0-2 0-0.5 1.5-1 3-1 0-2 0 0 1 0 2c-3-0.3-5.9-0.7-9-1q-0.5-1.5-1-3c-1-0.2-1-0.2-1.9-0.3-4.1-0.9-8.2-2-12.1-3.7q-0.5-1-1-2-1 0.5-2 1c-1-2-1-2-2-4q-1 0.5-2 1c-2.2-0.8-2.2-0.8-4.6-1.9-1.3-0.6-1.3-0.6-2.5-1.2q-0.9-0.4-1.9-0.9 0.5 1.5 1 3-3 0.5-6 1-0.1 3.9-0.1 7.8-0.1 1-0.1 2.2c0 3.9 0.3 6.6 2.2 10 0.3 2.6 0.3 2.6 0.4 5.3 0.4 5 1.4 8.3 3.6 12.7q0.4 1.5 0.9 3c1.2 3.3 2.8 5.6 4.9 8.3 2.2 3 3.9 6.2 5.7 9.5 1.4 2.5 1.4 2.5 4.5 3.2q0 1 0 2 1 0 2 0c2.1 1.8 2.1 1.8 4 4q0 1.5 0 3 1 0 2 0 0 1 0 2 1.6 0.3 3.3 0.7c4.2 1.5 5.1 2.8 7.7 6.3 2.6 1.3 2.6 1.3 5 2-3 1-3 1-5.5 0q-1.3-0.7-2.7-1.4c-1.3-0.7-1.3-0.7-2.7-1.5q-1-0.5-2.1-1.1 0.5 2 1 4 1.4 0.1 2.8 0.3c3.2 0.7 3.2 0.7 5 2.5 2.3 2.3 3.9 3 7 4.1 6.8 2.6 12.1 5.8 17.2 11.1q1.5 0.5 3 1c0.5 1.5 0.5 1.5 1 3q2.5 1.1 5 2.1c2.2 1 3.9 2.3 5.8 3.8 4.6 3.7 9.6 5.4 15.2 7.1-1.6 1.1-1.6 1.1-4 2-9.1-1.9-17.6-6.1-25.8-10.3-2.7-1.4-5.3-2.7-8-3.9-9.6-4.7-19.2-11.7-27.2-18.8q0-1 0-2-0.9-0.4-1.8-0.8c-2.4-1.3-4-2.8-5.9-4.7q-1-0.9-1.9-1.8c-1.4-1.7-1.4-1.7-1.4-3.7q-1 0-2 0 0-1 0-2-1 0-2 0c-1.6-1.8-3.1-3.7-4.6-5.6q-0.6-0.9-1.3-1.8c-17.1-22.8-27.6-46.7-33.1-74.6q-0.4-1.8-0.8-3.7c-3.5-21.2-1.8-43.4 2.8-64.3q0.4-1.9 0.8-3.8c4.1-15.7 10.9-31.3 19.2-45.2q0.8-1.4 1.7-2.9c3.5-5.6 7.4-10.9 11.6-16 1.8-2.2 1.8-2.2 3.7-5.1q1 0 2 0c0.4-0.9 0.4-0.9 0.8-1.8 1.3-2.4 2.8-4 4.7-5.9 0.9-1 0.9-1 1.8-1.9 1.7-1.4 1.7-1.4 3.7-1.4q0-1 0-2c11.7-11.3 26.3-20.2 41-27 1.5-0.8 1.5-0.8 3.1-1.5 36.9-18.3 80.9-18.6 118.9-3.5z"/>
	<path fill-rule="evenodd" class="s2" d="m391 243q1 0 2 0c-0.5 6.1-1.9 11.3-4.1 17q-0.4 1.2-0.8 2.3-1 2.9-2.1 5.7c5.5-5.5 6.5-15.8 8-23q2-0.5 4-1-0.3 1.2-0.6 2.4c-0.7 2.6-0.7 2.6 0.6 4.6q0.1 2.5 0 5 0 1.5 0 3-0.7 2-1.4 3.9c-1.5 3.8-2.6 7-2.6 11.1-0.6 3.2-1.8 6-3 9q1 0 2 0-0.5 1.5-1 3.1c-0.7 2.5-1 4.2-0.9 6.8-0.1 3.6-1.1 6.2-2.3 9.5-0.9 2.9-1.3 5.7-1.7 8.7-0.8 5.3-2.5 9.2-5.1 13.9q-1 2.5-2 5-0.5 0-1 0 0-1-0.1-2.1c-0.4-12.7-0.8-25.3-2.9-37.9q-1 0-2 0c0.3 1.1 0.3 1.1 0.6 2.1 2.3 8.2 2.9 15.8 2.8 24.2q0 1.8 0 3.7c0 11.5-2.7 17.1-10.7 25.4-2.7 2.6-5.4 4.9-8.3 7.2-3.3 2.6-6.4 5.3-9.4 8.4 8.5-5.2 15.2-10.7 22-18 0 4.3-2.2 5.9-5 9-7 7-7 7-11 7q-0.5 1.5-1 3c-1.9 1.2-1.9 1.2-4.2 2.3-3.1 1.7-5.5 3.2-7.9 5.8-2.7 3-5.2 4-9 5.2-2.7 1-4.7 2.8-6.9 4.7q-1 0-2 0 0 1 0 2-1 0-2 0-0.4 0.9-0.7 1.8c-2.8 4.9-6.2 6.8-11.4 8.7-1.7 0.6-1.7 0.6-3.5 1.3-1.7 0.6-1.7 0.6-3.4 1.2q-2.8 1.1-5.6 2.3c-2.5 0.9-4.9 1.9-7.4 2.7q0.5 1 1 2-3.5 0.7-6.9 1.4-2 0.4-3.9 0.8c-9 1.7-17.8 2-26.8 2-1.9 0-1.9 0-3.8 0-8.7-0.1-17-0.6-25.6-2.2q-0.5-2-1-4-0.8-0.2-1.7-0.3c-2.8-0.8-4.9-2-7.3-3.7q0-1 0-2c-1.4-0.3-1.4-0.3-2.9-0.7-3.1-1.3-3.1-1.3-4.5-3.9q-0.3-1.2-0.6-2.4-2 0-4 0c-0.5 1-0.5 1-1 2-0.3-0.9-0.3-0.9-0.7-1.9-1.7-2.7-3.3-3.2-6.3-4.1q0-1 0-2-1 0-2 0c-1-2.3-2-4.6-3-7 2.2-2.5 4.4-4.9 7-7 2.8-0.1 2.8-0.1 5 1q1 1 2 2c1.5-1 1.5-1 3-2q0.5 1.5 1 3 0-2 0-4 2.1 0 4.1-0.1 1.2 0 2.3 0c2.6 0.1 2.6 0.1 5.4 0.6 18.9 3 38.9 0.2 57.2-4.5q-1.7 0-3.4-0.1-6.4-0.1-12.8-0.3-2.7 0-5.5-0.1-3.9-0.1-7.9-0.2-1.2 0-2.4 0c-5.4-0.2-10.7-0.6-16-1.3q0-0.5 0-1c7.8-1.1 15.2-0.9 23.1-0.5q3.3 0.2 6.7 0.3c1.5 0.1 1.5 0.1 3 0.2 2.2 0.3 2.2 0.3 3.2-1 6.1-1.1 12.2-1.1 18.5-1 3.1 0.1 5.5 0 8.5-1q-0.5-1-1-2c1.1-2.2 1.1-2.2 2.8-4.8 1.7-2.7 3.1-5.1 4.3-8q0.4-1.1 0.9-2.2 2-0.5 4-1c1.2-2.3 1.2-2.3 2-5q0.6-1 1.2-2.1c1.1-2.1 1.1-2.1-0.2-4.9q1.5-0.5 3-1 0-2.5 0-5 2.5-1 5-2-0.4-0.8-0.8-1.7-0.1-1.1-0.2-2.3c2.4-2.6 2.4-2.6 5-5q0-1 0-2 1 0 2 0c-0.6-2.4-1.2-4.7-2-7q-1.5 0-3 0 0-1.5 0-3 2.5 0.5 5 1-0.5-2.5-1-5c2.9 1.3 4.8 2.8 7 5q1.5 0.5 3 1 0-1 0-2c4-1.5 7.8-3 11.9-4 1.6-0.5 1.6-0.5 3.1-1q0.5-1.5 1-3c3-1.2 5-1 8 0q0-1 0-2c2.3-0.7 4.6-1.3 7-2q0.5-2.5 1-5c2.6-0.3 5.3-0.7 8-1q-0.1-1.1-0.1-2.3c0.1-2.7 0.1-2.7 2.1-5.7q0-1.5 0-3 0.3-3 0.7-6.1 0.3-1.5 0.5-3.2c0.8-2.7 0.8-2.7 2.9-4.1 0.9-0.3 0.9-0.3 1.9-0.6q-0.1-1.2-0.2-2.4 0.1-1.3 0.2-2.6c3-2 3-2 6-2q0.5-1 1-2c0.7 2.1 0.7 2.1 1 5-1.9 3.2-1.9 3.2-4 6-2 3.9-2 8.7-1.9 13.1-0.1 3.6-0.8 6.5-2.1 9.9-3.6 3.3-7.4 5.3-11.8 7.3-1.8 0.7-1.8 0.7-3.5 1.5q-1.3 0.6-2.7 1.2c4.1-0.5 7.4-1.4 11.1-3.2q1.3-0.6 2.5-1.3c5.2-3.3 7.5-8.4 9.9-13.9 0.5-1.1 0.5-1.1 0.9-2.2 2.4-5.6 4.2-11.3 5.8-17.3 0.8-3.1 1.8-6.1 2.8-9.1zm-13 7c1 2 1 2 1 2z"/>
	<path class="s3" d="m267.4 74.8c1.5 0.1 1.5 0.1 3.1 0.2 7.2 0.7 7.2 0.7 9.5 3-1.3 0-1.3 0-2.7 0.1q-5 0.1-10 0.2-2.1 0.1-4.3 0.1c-7.3 0.2-14.4 0.5-21.6 2.1-5.6 1.1-11.5 1.2-17.2 1.5-5.8 0.4-9.7 1-14.2 5q-1.5 2-3 4c1.3 0.2 1.3 0.2 2.6 0.4q4.8 0.8 9.5 1.6 2.1 0.4 4.1 0.7 3 0.5 6 1 1.7 0.3 3.6 0.6c2.9 0.6 5.5 1.5 8.2 2.7q0 1 0 2c2 1 2 1 4 2q-0.3 1.2-0.7 2.5c-1.9 8.2-2.5 15.4-2.3 23.8 0 3.9-0.3 7.6-0.8 11.5-0.2 2.3-0.2 4.4-0.1 6.6-0.1 3.6-0.1 3.6-1.5 5.6-1.6 1-1.6 1-3.6 1-1 2-1 2-2 4q-2 0-4 0-0.3 0.9-0.6 1.9c-2.1 3.2-4.8 3.2-8.4 4.1q-2.5 1.5-5 3-1 0-2 0 0 1 0 2-2.5 1-5 2 0 1 0 2-2 0-4 0 0 1 0 2c-3 3.9-7.5 6.6-12.4 7.4-2.3 0-4.3 0.1-6.6-0.4q-1.5-1.5-3-3-3.5-1.1-7-2 0-1 0-2c-1.4-0.2-1.4-0.2-2.7-0.4-3.3-0.6-3.3-0.6-5-1.5-3.9-1.8-8.1-2.2-12.3-2.9-4.5-0.7-8-1.9-12-4.2-0.3-6.4 0.7-11.6 2.6-17.7q0.4-1.4 0.8-2.7c2-6.2 4.3-11.7 7.5-17.4 1.3-2.2 1.3-2.2 1.1-5.2-3.3 0-6.6 0-10 0q0 1 0 2c-1.5 1.4-1.5 1.4-3.6 3.1-6.5 5.6-11.3 11.4-15.4 18.9-1 0.5-1 0.5-2 1-1.1 2-1.1 2-2 4q-1 0-2 0-0.2 0.9-0.3 1.8c-0.7 2.2-0.7 2.2-2.1 3.9-2 2.9-2.9 5.7-4 9.1-1.4 4-2.8 7.8-4.9 11.6-1.9 4-2.4 7.2-1.7 11.6q0.8 2 1.6 4c1.8 4.9 1.1 8.9 0.3 13.9-2.5 16.9-1.7 34.5 2.1 51.1q0.3 1.1 0.5 2.3c1.2 7.9 1.2 7.9 4.5 14.7 0.1 3.5 0.1 3.5 0 7q-0.5 0.5-1 1c-0.3 4.1-0.3 8.2-0.3 12.2q0 2.1-0.1 4.1c-0.2 10.4 0.5 19.9 6.4 28.7 0.1 2.7 0.1 2.7 0 5q-1.5 0-3 0c-13.3-17.5-19.9-40.8-24-62q-0.3-1.7-0.7-3.5c-3.5-21.3-1.9-43.5 2.7-64.5q0.4-1.9 0.8-3.8c4.1-15.7 10.9-31.3 19.2-45.2q0.8-1.4 1.7-2.9c3.5-5.6 7.4-10.9 11.6-16 1.8-2.2 1.8-2.2 3.7-5.1q1 0 2 0c0.4-0.9 0.4-0.9 0.8-1.8 1.3-2.4 2.8-4 4.7-5.9 0.9-1 0.9-1 1.8-1.9 1.7-1.4 1.7-1.4 3.7-1.4q0-1 0-2c11.7-11.3 26.3-20.2 41-27 1.5-0.8 1.5-0.8 3.1-1.5 23.5-11.7 50.3-15.9 76.3-13.7z"/>
	<path class="s4" d="m351.5 115.4q1.5 0.1 3 0.2c2.5 0.4 2.5 0.4 4.5 1.4q0 1 0 2c-4 0-7.9 0-12 0q0 1 0 2 1.1 0.1 2.3 0.1 1.5 0.1 3 0.2 1.5 0.1 3 0.2c3 0.6 3.9 1.1 5.7 3.5q0.9 1.5 1.9 3.1c1.8 3.1 1.8 3.1 4.8 3.8q1.2 0 2.3 0.1 0 1.5 0 3 1.5 0.5 3 1 0.2 1 0.4 1.9 0.3 1.1 0.6 2.1 0.9 0.4 1.8 0.8c2.9 1.6 3.7 3.2 5.3 6q0.7 1.3 1.4 2.6 0.8 1.3 1.5 2.6c1.7 2.9 3 5 5.4 7.4 5.7 5.7 9.4 12.9 11.6 20.6-0.4 5-2 7.9-5 12q0.5 0.5 1 1c2-2.6 4-5.3 6-8 1 3 1 3 0 5.2-0.7 1.2-0.7 1.2-1.4 2.4q-0.7 1.2-1.4 2.4c-1.2 2-1.2 2-2.2 3q-0.1 2.3 0 4.6c0.1 10.5-0.6 20.9-2.4 31.3-0.2 1.1-0.2 1.1-0.4 2.1-0.3 1.7-0.8 3.4-1.2 5-1 0.5-1 0.5-2 1q0.1-1.3 0.2-2.5c0.6-7.8 0.9-15.6 1-23.4q0-1.3 0-2.7c0-8.7-1.1-15.2-7.1-21.8-0.8-0.9-0.8-0.9-1.5-1.7-3.9-4.4-8.2-8.2-12.9-11.8-2.7-2.1-2.7-2.1-5.3-4.5q-1.2-1.1-2.5-2.2c-1.1-1-1.1-1-2.2-2.1-4.8-2.3-9.3-1-14.3 0.5q-4.1 1.4-8.1 2.9c-1.5 0.6-1.5 0.6-3 1.2q-2.9 1-5.7 2.1-3.2 1.2-6.4 2.4c-6 2.1-11.7 4.8-17.4 7.7q-1 0.5-2 1c-4 2.2-6.1 3.9-7.6 8.4q-0.4 1.4-0.8 2.9-0.4 1.6-0.9 3.3-0.9 3.3-1.8 6.7c-1.6 5.9-3.4 11.5-5.7 17.1-2.2 5.7-3.7 11.7-5.4 17.6q-0.4 1.5-0.8 3-0.4 1.4-0.8 2.7c-1.3 2.8-2.2 3.1-5 4.2-2.1 0.3-2.1 0.3-4.4 0.3q-1.3 0-2.6 0-1.4 0-2.8 0c-1.5 0-1.5 0-3 0q-3.1 0-6.2 0-4.6-0.1-9.3 0c-12 0-23.8-0.6-35.7-2.3-3.2-10.6-6.2-21.3-9-32q-0.5-1.7-0.9-3.5-0.5-1.6-0.9-3.2-0.4-1.4-0.8-2.8c-0.4-2.6-0.2-4.1 0.6-6.5 2 5.6 2 5.6 2 9q1 0 2 0c2.4 2.6 3.9 4.6 5 8 1.5-0.5 1.5-0.5 3-1q0.5 1 1 2 0.5-1.5 1-3c3 1 3 1 4 3 1-1 1-1 2-2 0.5 1 0.5 1 1 2q0.9-0.2 1.8-0.5c2.2-0.5 2.2-0.5 5.2-0.5q0-1 0-2c4.6-4 4.6-4 6-4q1-2 2-4 1.5 0.5 3 1c0.7-2 1.3-4 2-6q1 0 2 0c1 1 1 1 2 2q-0.3-1.6-0.6-3.3c-0.4-3.7-0.4-3.7 0.6-6.7 2.5-0.5 2.5-0.5 5-1q-0.3-1.1-0.6-2.2c-0.5-3.2 0.2-4.9 1.6-7.8-1-0.5-1-0.5-2-1q1-1 2-2 0-1.5 0-3c0.5-1.5 0.5-1.5 1-3q1-0.5 2-1-0.7-0.9-1.5-1.8c-1.5-2.2-1.5-2.2-1.5-6.2q1 0 2 0 0-1 0-2c-2.3 0-4.6 0-7 0q0-1.5 0-3c-1-0.5-1-0.5-2-1-0.5 1-0.5 1-1 2q-1.5-0.5-3-1c-2 0.9-2 0.9-4.1 2.2-4.7 2.9-9.5 4.4-14.9 5.8 3.3-3.8 7-5.8 11.4-8.1q1-0.5 2-1.1c5.6-2.9 10.1-5.2 16.6-4.8 2.5 1.1 2.5 1.1 4.9 2.7q1.3 0.8 2.7 1.7 1.4 1 2.8 1.9 1.5 1 3 1.9c8.8 5.8 17.5 11.9 25.8 18.6 2.8 1.9 4.6 1.7 7.8 1.2 2.4-2.1 4.4-4.3 6.4-6.8 2.4-1.8 4.7-1.9 7.6-2.2q0-1.5 0-3 3-0.5 6-1 0-1 0-2 1.5 0 3 0 0-1 0-2c1.5-0.6 1.5-0.6 3.1-1.3 2.6-1.1 5.1-2.4 7.5-3.9 3.4-1.8 4.7-1.9 8.4-1.8 3.9-2.1 5.2-5 7-9q-1-0.5-2-1c0.3-0.9 0.3-0.9 0.7-1.8 0.6-2.3 0.6-2.3-1-4.4-1.6-1.9-1.6-1.9-3.7-2.8q0.5-1.1 1.1-2.1c1.1-3.4 0.8-5.3 0-8.7-0.3-1.5-0.3-1.5-0.6-3q-0.2-1.1-0.5-2.2c5.3 4.9 6.9 12.3 9 19-1.3-7-3.5-13.5-6.1-20.1-2-5.6-2-5.6-0.9-8.9 2.7-1.3 4.5-0.9 7.5-0.6z"/>
	<path class="s5" d="m276 94c2.1 0.4 2.1 0.4 4 1q1.5-0.5 3-1 1 0.5 2 1 1-0.5 2-1c2.5-0.1 5-0.1 7.5-0.1q1 0 2.1 0c5.1 0 5.1 0 7.4 1.1q0 1 0 2 0.9 0.2 1.8 0.4c6 1.6 10.9 5 15.8 8.8 3.7 2.7 7.5 5.1 11.4 7.6 3.5 2.2 6.8 4.5 10 7.2q0.5-1 1-2 2 5.6 4 11.2 0.6 1.6 1.2 3.2 0.5 1.5 1 3.1c0.6 1.4 0.6 1.4 1.1 2.8 0.7 2.7 0.8 4.9 0.7 7.7-2.8-2.8-3.7-6.3-5.1-10.1-1.4-4.8-1.4-4.8-3.9-8.9 1 4.9 1 4.9 2 10q-1 0-2 0 0.5 1.5 1 3 1 0.5 2 1c2 6.1 2.6 10.1 0 16-2.7 2.2-4.9 3-8.3 3.9-3.9 1.2-6.5 2.8-9.8 5.1-1.9 1-1.9 1-5.9 1q0 1 0 2-1.5 0-3 0 0 1 0 2-3 0.5-6 1 0 1.5 0 3c-3 0.5-3 0.5-6 1-0.5 1.5-0.5 1.5-1 3-3.4 3-3.4 3-6 3-0.5 1.5-0.5 1.5-1 3-3.8 0.4-5.6 0.2-8.9-1.8q-1.5-1.3-3-2.6-1.8-1.4-3.5-2.7c-0.9-0.8-0.9-0.8-1.8-1.5-2.3-1.8-4.7-3.5-7.2-5.1q-1.8-1.2-3.7-2.5c-3.3-2.2-6.4-4.1-10.1-5.5-4.7-2-8.8-4.1-11.8-8.3-2.6-8.6-1.3-18.1-0.7-26.9q0.2-3.8 0.3-7.5c0.2-4.5 0.4-9 0.7-13.6q0.1-1.3 0.2-2.7c0.6-2.7 1.3-3.6 3.5-5.3 5.8-2.8 10.1-3.2 16.5-2.8 3-0.2 4.2-1.3 6.5-3.2z"/>
	<path fill-rule="evenodd" class="s6" d="m295.5 86.4c1.5 1.6 1.5 1.6 1.5 3.6q-1.5 0.3-3.1 0.5c-20 3.3-20 3.3-39.1 9.8-1.8 0.7-1.8 0.7-3.8 0.7-0.3 18.5-0.7 37-1 56-3.6 1.3-7.3 2.6-11 4-3 1.5-5.8 3.1-8.7 4.7q-1.1 0.7-2.1 1.3-2.6 1.5-5.2 3c5.3-1.8 10.5-3.6 15.5-6.3 4.4-2.2 6.8-1.7 11.5-0.7q-1.5 0.5-3 1c2.3 0.7 4.6 1.3 7 2q0 1 0 2-1 0-2 0 0 1.5 0 3 1 0.5 2 1 1.1 3 2 6-1.5 0-3 0 0.3 1.2 0.6 2.4 0.2 1.3 0.4 2.6-1 1-2 2 0 0.5 0 1-0.3 1.1-0.6 2.2c-0.4 3-0.1 5 0.6 7.8-1.2 0.3-1.2 0.3-2.4 0.6q-1.3 0.7-2.6 1.4c-1.1 3.6-1.2 5.4 0 9q-1.5 0-3 0-0.5-0.5-1-1-0.6 1.2-1.2 2.4c-1.8 2.6-1.8 2.6-4 3.4q-0.9 0.1-1.8 0.2 1 0.5 2 1-2 2-4 4-1 0-2 0-1.5 0.5-3 1 0.5 1.5 1 3-1.6 0-3.2-0.1c-3 0.1-5 0.4-7.8 1.1-2-1-2-1-4-3q-0.5 1-1 2 1 0.5 2 1c-3.9-0.6-6.2-2.3-9-5-1.3-2.8-1.3-2.8-2-5q-1 0-2 0c-0.7-2-1.3-4-2-6 4.4 19.8 4.4 19.8 10.1 39.1 0.9 2.9 0.9 2.9 0.9 5.9 2.3 0 4.6 0 7 0q0 0.5 0 1-1.5 0.1-3.1 0.1c-4.9 0.7-7.3 3.6-10.6 7.1q-0.8 0.8-1.7 1.7c-3.3 3.5-6 7-8.6 11.1q-2.4 2.6-5 5c-5.3 5.1-10.2 10.3-14.6 16.2-1.4 1.8-1.4 1.8-3.4 2.8q0-1.5 0-3c-4.1 1.4-6.9 3.4-10.1 6.2-1.9 0.8-1.9 0.8-4.6 0.2q-5.8-2.4-11.4-5.1-1.1-0.5-2.3-1c-5.6-2.7-10.9-5.7-16.2-9-2.6-1.5-2.6-1.5-6.4-2.3 0.3 9.2 0.7 18.5 1 28q1 0 2 0c2.6 5.4 4.5 10 5 16q1 0 2 0 0 1 0 2 1 0 2 0 0 2 0 4 1 0 2 0c0.4 1.2 0.4 1.2 0.7 2.4q0.7 1.3 1.3 2.6 1 0.2 2 0.5 1 0.2 2 0.5 1.1 2.5 2 5 1.5 1 3 2 0 1.5 0 3 0.9 0.2 1.7 0.4c3.4 0.9 5.7 1.6 7.6 4.7q0.6 1.1 1.1 2.3c2 3.8 3.5 5.9 7.6 7.6q-1 0.5-2 1c-2.9-1.4-4.6-2.2-6-5.1q-0.5-0.9-1-1.9c-2.5-0.7-2.5-0.7-5-1q-1-0.5-2-1 0-1 0-2-1 0-2 0 0-1.5 0-3-2-1-4-2 0-1 0-2-1 0-2 0 0-1 0-2-0.9-0.1-1.8-0.2c-3.1-1.1-3.6-3-5.2-5.8q-1.7-2.4-3.5-4.9c-2.8-3.9-4.8-7.6-6.5-12.1q-0.6-1.4-1.1-2.8c-1.5-3.7-2.1-6.9-2.5-10.9q-0.1-1.5-0.2-3-0.1-1.1-0.2-2.3-1 0-2 0c-0.1-6.8 0-13.3 1-20 2.5-1 2.5-1 5-2q0-1.5 0-3 1 0.4 2.1 0.9 1.4 0.6 2.8 1.2 1.3 0.5 2.7 1.1c2.4 1.1 2.4 1.1 4.4-0.2q1 2 2 4 1-0.5 2-1 0 1.5 0 3c1.5 0.2 1.5 0.2 3.1 0.3 4.2 0.7 7.1 1.8 10.9 3.7q0.5 1 1 2c2.1 0.7 2.1 0.7 4.6 1.1 1.2 0.3 1.2 0.3 2.5 0.5q0.9 0.2 1.9 0.4 0-1 0-2c1.4-1.6 1.4-1.6 3-3q1 0 2 0 0.3-1.1 0.7-2.2c1.6-3.4 3.6-5.2 6.3-7.8q1-1.6 2.1-3.3c1.9-2.7 1.9-2.7 4.9-3.7q1.1-2 2-4 1.4-1.9 3-3.7 0.8-0.9 1.6-1.8c1.4-1.5 1.4-1.5 3.4-2.5q0.4-0.9 0.9-1.8c1.3-2.6 3-4.2 5.1-6.2q0.5-1 1-2 1.5 0 3 0-0.3-1.3-0.6-2.7-1-5-2-10.1-0.4-2.1-0.8-4.3c-1.6-7.7-3-15-2.6-22.9q-1 0-2 0c-1.9-6.3-2.3-12.2-2.4-18.8-0.3-3.4-0.3-3.4-3-5.5q-1.3-0.8-2.6-1.7c-1.5-1-1.5-1-3-2 2.1-2.1 6.4-1.4 9.2-1.5 3.1-0.6 4.4-1.6 6.8-3.5q1.5 0 3 0c0.5-1.5 0.5-1.5 1-3q1 0 2 0 0-1 0-2 2 0 4 0 0-1 0-2 2.5-1 5-2 0-1 0-2c3.6-2.9 7.5-5 11.9-6.2q1.5-0.4 3.1-0.8 0.5-1 1-2 2.5-1 5-2 0.5-1 1-2 1 0 2 0c0.5-1.5 0.5-1.5 1-3q1 0 2 0-0.1-1.3-0.3-2.7c-0.1-1.7-0.1-1.7-0.3-3.5-0.1-1.7-0.1-1.7-0.3-3.5-0.1-3 0.3-5.3 0.9-8.3q0-4-0.1-8c-0.2-7.8 0.9-14.5 3.1-22q-2-1-4-2 0.5-1 1-2-11.8-2.2-23.7-4.1-1.6-0.3-3.3-0.6-4-0.6-8-1.3 0.5-1 1-2c7.1 0.6 13.9 1.6 20.9 3q1.4 0.3 2.8 0.5c3.8 0.8 7.5 1.5 11.3 2.5q-3.6-1-7.2-1.9-1-0.3-2-0.6c-3.6-0.9-7.2-1.8-10.8-2.5 2.3-2.8 3.8-3.4 7.4-3.7q1.3-0.2 2.6-0.3 1.4-0.1 2.8-0.2c1.4-0.1 1.4-0.1 2.9-0.2 6.5-0.6 12.9-0.8 19.4-0.6 3.1 0 5.9-0.5 8.9-1 3.1-0.3 6.2-0.5 9.4-0.6 1.2-0.1 1.2-0.1 2.4-0.2 12.6-0.7 12.6-0.7 17.7 2.2zm-94.5 151.6c1 2 1 2 1 2z"/>
	<path fill-rule="evenodd" class="s7" d="m382 246c1 0.5 1 0.5 2 1 0.3 2.1 0.3 2.1 0 5q-1.9 2.1-3.8 4.3c-2.7 4-2.2 9.2-2.1 13.8-0.1 3.7-0.8 6.5-2.1 9.9-3.6 3.3-7.4 5.3-11.8 7.2q-1.7 0.8-3.5 1.6-1.3 0.6-2.7 1.2c1.9-0.3 1.9-0.3 3.8-0.6 3-0.4 4.2-0.4 7.2 0.6q1.5 0 3 0c1.6 5 0.3 9.1-1 14q1-2.5 2-5 0.5 0 1 0c0.4 6.2-1 11.2-3 17-0.6 1.7-0.6 1.7-1.1 3.5-0.9 2.5-0.9 2.5-1.9 4.5-1.5 0.5-1.5 0.5-3 1q-0.5 1-1 2 1 0 2 0c-4 11-4 11-8 13q-1.1 3-2 6-1 0-2 0 0 1 0 2c-1.5 0.5-1.5 0.5-3 1q-1 1.5-2 3-1.5 0.5-3 1-2.5 2.5-5 5c-4.7 4.6-9.6 7.5-15.4 10.5-3.3 1.9-5.9 4-8.6 6.5q-0.5-0.6-1.1-1.3c-4-3.6-8.9-5.8-13.9-7.7q-2-1-4-2 0-1 0-2-2.5 0-5 0 0-1 0-2-2.5-0.5-5-1c1.5-1 1.5-1 3-2q-0.5-1-1-2c1.1-2.2 1.1-2.2 2.8-4.8 1.7-2.7 3.1-5.1 4.3-8q0.4-1.1 0.9-2.2 2-0.5 4-1c1.2-2.3 1.2-2.3 2-5q0.6-1 1.2-2.1c1.1-2.1 1.1-2.1-0.2-4.9 1.5-0.5 1.5-0.5 3-1q0-2.5 0-5c2.5-1 2.5-1 5-2q-0.4-0.8-0.8-1.7-0.1-1.1-0.2-2.3c2.4-2.6 2.4-2.6 5-5q0-1 0-2 1 0 2 0c-0.6-2.4-1.2-4.7-2-7q-1.5 0-3 0 0-1.5 0-3 2.5 0.5 5 1c-0.5-2.5-0.5-2.5-1-5 2.9 1.3 4.8 2.8 7 5q1.5 0.5 3 1 0-1 0-2c4-1.5 7.8-3 11.9-4 1.6-0.5 1.6-0.5 3.1-1q0.5-1.5 1-3c3-1.2 5-1 8 0q0-1 0-2c2.3-0.7 4.6-1.3 7-2q0.5-2.5 1-5c2.6-0.3 5.3-0.7 8-1q-0.1-1.1-0.1-2.3c0.1-2.7 0.1-2.7 2.1-5.7q0-1.5 0-3 0.3-3 0.8-6.1 0.2-1.5 0.4-3.2c0.8-2.7 0.8-2.7 2.9-4.1 0.9-0.3 0.9-0.3 1.9-0.6q-0.1-1.2-0.2-2.4c0.1-1.3 0.1-1.3 0.2-2.6 3-2 3-2 6-2q0-1 0-2zm-4 4c1 2 1 2 1 2z"/>
	<path class="s8" d="m121 282c5.7 0.5 9.7 2.8 14.6 5.7q2.4 1.3 4.8 2.7 1.1 0.7 2.3 1.3 4.8 2.7 9.6 5 1.5 0.8 3 1.5c3.4 1 4.7 0.5 7.7-1.2q1.2-1 2.4-2.1c3-2.2 5-2.6 8.6-2.9-2.7 5.7-2.7 5.7-4.7 7.6q-0.7 0.7-1.3 1.4c0.4 4.5 2.5 8.4 4.5 12.4q0.5 1 1.1 2.1c5.9 11.5 12.4 22.1 20.7 32.1 3.6 4.6 3.6 4.6 3.9 8-1.8 3.5-4.5 5.4-7.6 7.6q-0.9 0.6-1.8 1.3c-7.4 5.5-7.4 5.5-10.8 5.5q0 2 0 4-1.5-0.5-3-1 0-1 0-2-0.9-0.2-1.9-0.3c-1.2-0.3-1.2-0.3-2.4-0.5-1.2-0.2-1.2-0.2-2.4-0.5-2.3-0.7-2.3-0.7-5.3-3.7 3 0.7 5.9 1.3 9 2q0-1 0-2c-1.8-0.4-1.8-0.4-3.6-0.8-5.7-1.4-9.7-3.7-12.8-8.8-1.6-3.4-1.6-3.4-1.6-5.4-2.7-1.1-5.3-2.1-8-3q0-1.5 0-3c-0.9-0.3-0.9-0.3-1.9-0.7-2.7-1.7-3-3.4-4.1-6.3-1.5-0.5-1.5-0.5-3-1-1.2-2.6-1.2-2.6-2-5q-1 0-2 0 0-2 0-4-1 0-2 0 0-1 0-2-1 0-2 0c-1.5-3.6-2.6-7.1-3.6-10.8q-0.4-1.5-0.8-3c-0.3-1.1-0.3-1.1-0.6-2.2q-1 0-2 0c-1.3-5.8-1.1-11.5-1.1-17.4q0-1.5 0.1-3.1 0-3.7 0-7.5z"/>
	<path class="s9" d="m351.5 115.4q1.5 0.1 3 0.2c2.5 0.4 2.5 0.4 4.5 1.4q0 1 0 2c-4 0-7.9 0-12 0q0 1 0 2 1.1 0.1 2.3 0.1 1.5 0.1 3 0.2 1.5 0.1 3 0.2c3 0.6 3.9 1.1 5.7 3.5q0.9 1.5 1.9 3.1c1.8 3.1 1.8 3.1 4.8 3.8q1.2 0 2.3 0.1 0 1.5 0 3c1.5 0.5 1.5 0.5 3 1q0.2 1 0.4 1.9 0.3 1.1 0.6 2.1 0.9 0.4 1.8 0.8c2.9 1.6 3.7 3.2 5.3 6q0.7 1.3 1.4 2.6 0.8 1.3 1.5 2.6c1.7 2.9 3 5 5.4 7.4 5.7 5.7 9.4 12.9 11.6 20.6-0.4 5-2 7.9-5 12q0.5 0.5 1 1c2-2.6 4-5.3 6-8 1 3 1 3 0 5.2-0.7 1.2-0.7 1.2-1.4 2.4q-0.7 1.2-1.4 2.4c-1.2 2-1.2 2-2.2 3q-0.1 2.3 0 4.6c0.1 10.5-0.6 20.9-2.4 31.3-0.2 1.1-0.2 1.1-0.4 2.1-0.3 1.7-0.8 3.4-1.2 5-1 0.5-1 0.5-2 1q0.1-1.3 0.2-2.5c0.6-7.8 0.9-15.6 1-23.4q0-1.3 0-2.7c0-8.7-1.1-15.2-7.1-21.8-0.8-0.9-0.8-0.9-1.5-1.7-3.9-4.4-8.2-8.2-12.9-11.8-2.7-2.1-2.7-2.1-5.3-4.5q-1.2-1.1-2.5-2.2c-1.1-1-1.1-1-2.2-2.1-4.8-2.3-9.3-1-14.3 0.5q-4.1 1.4-8.1 2.9-1.5 0.6-3 1.2-2.9 1-5.7 2.1-3.2 1.2-6.4 2.4c-8.5 3.1-16.3 7.2-24.2 11.6-1 0.5-1 0.5-2 1-1.3-1.7-2.6-3.3-4-5q1.1-0.1 2.2-0.2c4.2-1.2 6.5-4.2 9.2-7.6 2.4-1.8 4.7-1.9 7.6-2.2q0-1.5 0-3c3-0.5 3-0.5 6-1q0-1 0-2 1.5 0 3 0 0-1 0-2 1.5-0.6 3.1-1.3c2.6-1.1 5.1-2.4 7.5-3.9 3.4-1.8 4.7-1.9 8.4-1.8 3.9-2.1 5.2-5 7-9-1-0.5-1-0.5-2-1q0.3-0.9 0.7-1.8c0.6-2.3 0.6-2.3-1-4.4-1.6-1.9-1.6-1.9-3.7-2.8 0.5-1.1 0.5-1.1 1.1-2.1 1.1-3.4 0.8-5.3 0-8.7q-0.3-1.5-0.6-3c-0.2-1.1-0.2-1.1-0.5-2.2 5.3 4.9 6.9 12.3 9 19-1.3-7-3.5-13.5-6.1-20.1-2-5.6-2-5.6-0.9-8.9 2.7-1.3 4.5-0.9 7.5-0.6z"/>
</svg>